<svg width="800" height="800" viewBox="0 0 800 800" fill="none" xmlns="http://www.w3.org/2000/svg">
<path d="M354 51.8468C382.774 35.2339 418.226 35.2339 447 51.8468L682.657 187.903C711.431 204.516 729.157 235.218 729.157 268.444V540.556C729.157 573.782 711.431 604.484 682.657 621.097L447 757.153C418.226 773.766 382.774 773.766 354 757.153L118.343 621.097C89.5691 604.484 71.8434 573.782 71.8434 540.556V268.444C71.8434 235.218 89.5691 204.516 118.343 187.903L354 51.8468Z" fill="#404040"/>
<path d="M682.75 178L445.9 37.5C432.126 29.3378 416.411 25.0309 400.4 25.0309C384.389 25.0309 368.674 29.3378 354.9 37.5L118.15 178C104.068 186.403 92.4171 198.328 84.3427 212.6C76.2684 226.873 72.0491 243.002 72.1 259.4V540.6C72.0164 556.951 76.1792 573.044 84.1812 587.304C92.1831 601.564 103.75 613.502 117.75 621.95L354.55 762.55C368.324 770.712 384.039 775.019 400.05 775.019C416.061 775.019 431.776 770.712 445.55 762.55L682.35 621.95C696.353 613.505 707.923 601.568 715.925 587.308C723.928 573.047 728.089 556.952 728 540.6V259.4C728.13 243.092 724.036 227.028 716.115 212.772C708.194 198.516 696.716 186.554 682.8 178.05L682.75 178ZM499.3 617.05V637.25C499.28 638.493 498.95 639.712 498.339 640.795C497.727 641.878 496.854 642.791 495.8 643.45L483.85 650.3C481.95 651.3 480.35 650.3 480.35 647.65V627.85C471.885 631.997 462.205 632.939 453.1 630.5C452.381 630.029 451.852 629.319 451.605 628.496C451.358 627.673 451.409 626.789 451.75 626L456.05 607.75C456.29 606.753 456.728 605.814 457.337 604.989C457.947 604.165 458.717 603.471 459.6 602.95C459.9 602.821 460.223 602.754 460.55 602.754C460.877 602.754 461.2 602.821 461.5 602.95C469.876 605.196 478.799 604.065 486.35 599.8C491.7 597.177 496.242 593.159 499.498 588.169C502.754 583.179 504.603 577.403 504.85 571.45C504.85 561.15 499.25 556.85 485.65 556.8C468.45 556.8 452.6 553.5 452.15 528.1C452.352 517.249 454.953 506.578 459.769 496.853C464.584 487.127 471.493 478.588 480 471.85V451.5C479.993 450.238 480.312 448.995 480.925 447.892C481.538 446.788 482.425 445.861 483.5 445.2L495.05 437.85C496.95 436.85 498.55 437.85 498.55 440.55V461C505.635 457.766 513.547 456.805 521.2 458.25C522.005 458.704 522.608 459.448 522.886 460.329C523.165 461.211 523.098 462.165 522.7 463L518.65 481.1C518.155 482.948 516.998 484.549 515.4 485.6C514.832 485.791 514.218 485.791 513.65 485.6C506.19 483.983 498.394 485.27 491.85 489.2C487.071 491.264 482.978 494.645 480.047 498.947C477.117 503.25 475.471 508.297 475.3 513.5C475.3 522.75 480.2 525.6 496.55 525.9C518.45 525.9 527.9 535.85 528.15 557.85C527.936 569.224 525.249 580.415 520.275 590.647C515.302 600.878 508.162 609.905 499.35 617.1L499.3 617.05ZM623.35 583.05C623.506 583.908 623.421 584.793 623.103 585.605C622.785 586.418 622.247 587.126 621.55 587.65L561.65 624C561.376 624.234 561.034 624.374 560.674 624.401C560.315 624.428 559.956 624.34 559.65 624.15C559.342 623.962 559.1 623.683 558.957 623.352C558.814 623.02 558.776 622.653 558.85 622.3V606.8C558.891 605.968 559.173 605.167 559.661 604.492C560.149 603.817 560.823 603.299 561.6 603L620.55 567.7C620.833 567.474 621.18 567.341 621.541 567.32C621.903 567.299 622.263 567.391 622.57 567.583C622.877 567.775 623.117 568.058 623.257 568.392C623.397 568.727 623.429 569.096 623.35 569.45V583.05ZM664.7 237.35L440.6 375.75C412.65 392.3 392.1 410.4 392.1 444.1V720.1C392.1 740.3 400.35 753.2 412.75 757.15C408.66 757.918 404.511 758.336 400.35 758.4C387.15 758.4 374.25 754.8 362.95 748.05L126.1 607.5C114.61 600.531 105.118 590.707 98.5468 578.984C91.9758 567.262 88.5492 554.039 88.6 540.6V259.4C88.5319 245.944 91.9503 232.701 98.5221 220.959C105.094 209.217 114.595 199.378 126.1 192.4L363 51.9C374.268 45.2203 387.126 41.6957 400.225 41.6957C413.324 41.6957 426.182 45.2203 437.45 51.9L674.25 192.5C683.894 198.332 692.148 206.199 698.435 215.552C704.722 224.905 708.891 235.518 710.65 246.65C702.95 229.95 685.25 225.3 664.65 237.4H664.75L664.7 237.35Z" fill="#CCCCCC"/>
</svg>
